<svg width="24" height="24" viewBox="0 0 24 24" fill="none" xmlns="http://www.w3.org/2000/svg">
<path d="M16.1999 3.5C15.1999 2.5 13.8999 2 12.6999 2C11.4999 2 10.0999 2.5 9.1999 3.5L3.3999 9.1C1.3999 11.1 1.3999 14.2 3.3999 16.2C5.3999 18.2 8.4999 18.2 10.4999 16.2L16.1999 10.5C18.0999 8.6 18.0999 5.4 16.1999 3.5ZM14.7999 9.1L11.9999 11.9L8.3999 8.4L3.9999 12.8C3.9999 12 4.1999 11.1 4.8999 10.5L10.5999 4.8C11.0999 4.3 11.8999 4 12.5999 4C13.2999 4 14.0999 4.3 14.6999 4.8C15.8999 6.1 15.8999 7.9 14.7999 9.1ZM19.5999 7.1C19.5999 7.9 19.3999 8.6 19.1999 9.4C20.1999 10.6 20.1999 12.4 19.0999 13.5L16.2999 16.3L14.7999 14.8L11.9999 17.6C10.6999 18.9 8.8999 19.6 7.1999 19.6C7.3999 19.9 7.5999 20.2 7.8999 20.5C9.8999 22.5 12.9999 22.5 14.9999 20.5L20.6999 14.8C22.6999 12.8 22.6999 9.7 20.6999 7.7C20.1999 7.5 19.8999 7.3 19.5999 7.1Z" fill="#F5F5F5" fill-opacity="0.4"/>
</svg>
